<?xml version="1.0" encoding="UTF-8"?>
<svg xmlns="http://www.w3.org/2000/svg" xmlns:xlink="http://www.w3.org/1999/xlink" width="90.91pt" height="105.75pt" viewBox="0 0 90.91 105.75" version="1.1">
<g id="surface1">
<path style="fill:none;stroke-width:8;stroke-linecap:square;stroke-linejoin:miter;stroke:rgb(20.799255%,21.998596%,19.999695%);stroke-opacity:1;stroke-miterlimit:10;" d="M 214.414063 1053.554688 L 57.460938 1053.554688 L 35.039063 1038.554688 L 5.15625 993.59375 L 12.617188 986.09375 L 42.5 978.632813 L 42.5 963.632813 L 50 956.132813 L 64.921875 888.710938 L 79.882813 873.710938 L 102.304688 866.210938 L 117.265625 851.25 L 124.726563 776.328125 L 117.265625 701.40625 L 102.304688 678.90625 L 57.460938 626.484375 L 12.617188 559.023438 L 12.617188 529.0625 L 27.578125 506.5625 L 35.039063 491.601563 L 79.882813 499.101563 L 102.304688 499.101563 L 102.304688 491.601563 L 79.882813 484.101563 L 57.460938 469.101563 L 35.039063 469.101563 L 20.078125 439.140625 L 35.039063 424.179688 L 431.171875 191.914063 L 446.132813 124.453125 L 461.054688 101.992188 L 618.007813 4.570313 L 632.96875 12.070313 L 655.390625 34.570313 L 677.8125 86.992188 L 715.195313 161.914063 L 722.65625 191.914063 L 737.617188 221.875 L 745.078125 236.835938 L 789.921875 259.335938 L 797.382813 281.796875 L 812.34375 296.796875 L 842.226563 311.757813 L 872.148438 341.757813 L 872.148438 356.71875 L 812.34375 431.640625 L 804.882813 851.25 L 857.1875 903.671875 L 902.03125 978.632813 L 849.726563 978.632813 L 782.460938 1008.59375 L 700.234375 993.59375 L 670.351563 956.132813 L 618.007813 933.671875 L 573.203125 933.671875 L 520.859375 948.632813 L 490.976563 948.632813 L 446.132813 963.632813 L 423.710938 986.09375 L 341.484375 1031.054688 L 311.5625 1046.054688 L 244.296875 1046.054688 Z M 214.414063 1053.554688 " transform="matrix(0.1,0,0,-0.1,0,105.75)"/>
</g>
</svg>
